<svg xmlns="http://www.w3.org/2000/svg" shape-rendering="geometricPrecision" text-rendering="geometricPrecision" image-rendering="optimizeQuality" fill-rule="evenodd" clip-rule="evenodd" viewBox="0 0 511.999 288.047"><path fill-rule="nonzero" d="M262.929 286.082c-74.423 6.004-96.487-2.057-145.535-19.984-9.966-3.642-21.113-7.717-34.844-12.408-23.211-7.93-45.129-7.922-69.729-7.912v.04h-2.617C4.569 245.818 0 241.249 0 235.614V57.141c0-5.635 4.569-10.204 10.204-10.204 3.764 0 9.708.194 15.963.397 14.801.481 31.642 1.029 42.354-1.47 7.034-1.642 17.702-7.671 30.032-14.64 37.144-20.995 87.503-49.456 129.409-15.45a109.843 109.843 0 014.533 3.86h238.468c11.237 0 21.531 4.212 29.007 11.308 7.428 7.052 12.029 16.856 12.029 28.157 0 11.302-4.598 21.107-12.028 28.16-7.476 7.094-17.767 11.307-29.008 11.307h-89.025a33.941 33.941 0 013.401 2.364c7.339 5.81 11.834 14.197 11.834 25.412 0 11.109-4.519 20.739-11.819 27.657a39.611 39.611 0 01-8.197 5.97c3.765 1.254 7.22 2.974 10.245 5.225 7.45 5.547 11.998 13.7 11.998 25.119 0 11.312-4.563 20.658-11.964 27.301-7.296 6.551-17.273 10.289-28.15 10.464 6.047 4.786 9.648 11.797 9.648 21.941 0 10.863-4.389 19.791-11.502 26.133-7.155 6.382-17.001 9.93-27.7 9.93h-66.803z"/><path fill="#FDD0BF" d="M281.27 88.37h189.693c16.962 0 30.84-12.308 30.84-29.27 0-16.963-13.884-29.271-30.84-29.271H241.355c1.109 1.586 2.301 3.358 3.725 5.448l36.19 53.093z"/><path fill="#FEDECF" d="M281.27 88.37h180.274c16.962 0 30.84-4.459 30.84-21.421 0-16.963-13.892-26.131-30.84-26.131H248.857L281.27 88.37z"/><path fill="#FDD0BF" d="M299.513 154.895h57.333c16.566 0 30.123-11.985 30.123-28.553 0-16.567-13.562-23.843-30.123-23.843h-65.948c3.307 4.873 4.965 7.512 6.089 11.114 1.088 3.476 1.18 6.337 1.349 11.651l.144 4.025 1.033 25.606z"/><path fill="#FEDECF" d="M299.513 154.895h49.484c16.566 0 30.123-8.846 30.123-25.414 0-16.567-13.57-19.133-30.123-19.133h-53.289a24.08 24.08 0 011.279 3.265c1.088 3.476 1.18 6.337 1.349 11.651l.144 4.025 1.033 25.606z"/><path fill="#FDD0BF" d="M299.58 217.882h58.907c16.89 0 30.709-10.679 30.709-27.569s-13.83-22.859-30.709-22.859H300.02l1.291 31.999c.305 6.8-.328 12.992-1.731 18.429z"/><path fill="#FEDECF" d="M299.58 217.882h52.628c16.89 0 30.708-5.97 30.708-22.86 0-16.889-13.835-19.719-30.708-19.719h-51.871l.974 24.15c.305 6.8-.328 12.992-1.731 18.429z"/><path fill="#FDD0BF" d="M294.163 230.44h35.569c15.949 0 28.998 3.63 28.998 19.58 0 15.949-13.056 25.859-28.998 25.859h-56.873l-.047-.047c-10.501-10.078-21.555-22.941-20.413-37.755 3.582 2.231 7.161 3.775 10.664 4.678 6.903 1.779 13.442 1.114 19.22-1.666 4.705-2.265 8.74-5.876 11.88-10.649z"/><path fill="#FEDECF" d="M291.849 236.719h33.174c15.949 0 28.998.491 28.998 16.441 0 15.949-13.059 22.719-28.998 22.719h-52.164l-.047-.047c-10.501-10.078-21.555-22.941-20.413-37.755 3.582 2.231 7.161 3.775 10.664 4.678 4.27 1.1 8.401 1.265 12.299.573 8.355 2.583 14.402.732 16.487-6.609z"/><path fill="#FDD0BF" d="M249.354 222.533c-12.68 9.513-9.838 39.026 12.186 53.346-88.261 7.175-99.788-5.89-175.723-31.834-25.572-8.737-49.013-8.431-75.613-8.431V57.141c17.571 0 44.353 2.445 60.629-1.353 32.235-7.523 108.613-81.334 160.352-22.819l49.677 72.881c7.885 11.57 6.892 9.906 7.455 23.837l2.832 70.205c1.399 31.274-19.941 45.028-41.795 22.641z"/><path fill="#FFE2D4" d="M249.354 222.533c-12.68 9.513-18.169 39.026 3.856 53.346-88.262 7.175-91.458-5.889-167.393-31.834-25.572-8.737-49.013-8.431-75.613-8.431V72.84c17.571 0 44.357 2.443 60.629-1.354 32.233-7.519 108.613-84.474 160.352-25.959l43.397 60.323c7.886 11.57 6.893 9.906 7.455 23.837l2.833 70.205c1.398 31.274-13.662 45.028-35.516 22.641z"/><path fill-rule="nonzero" d="M208.885 122.499c.126.083.249.172.37.267l20.863 15.061a5.474 5.474 0 012.215 5.258c-2.197 17.459-1.867 33.298 1.385 47.469 3.205 13.966 10.122 25.855 19.448 36.603l-8.285 7.169c-10.544-12.153-18.245-25.617-21.849-41.324-3.345-14.572-3.866-30.643-1.926-48.179l-14.748-10.646c-13.602 12.577-29.196 21.819-47.658 26.239-19.849 4.752-42.849 3.866-70.032-4.53a5.48 5.48 0 013.22-10.474c25.21 7.787 46.296 8.665 64.281 4.36 15.716-3.762 29.202-11.539 41.108-22.15l-11.978-8.647a5.473 5.473 0 116.396-8.884l17.19 12.408z"/><path fill="#E1BEB1" d="M249.32 203.557l29.428-5.679c-.057 5.888.658 13.894-1.217 19.242-3.985 11.355-16.61 12.997-25.376-5.49l-2.835-8.073z"/></svg>